<svg xmlns="http://www.w3.org/2000/svg" viewBox="0 0 128 128"><!--!Font Awesome Free 6.6.0 by @fontawesome - https://fontawesome.com License - https://fontawesome.com/license/free Copyright 2024 Fonticons, Inc.--><path d="M 40 24 a 24 24 90 1 1 48 0 A 24 24 90 1 1 40 24 z m 20 38 l 0 66 l -12.1 -6.05 c -5.225 -2.6 -10.875 -4.25 -16.7 -4.825 l -24 -2.4 C 3.125 114.3 0 110.875 0 106.75 L 0 56 c 0 -4.425 3.575 -8 8 -8 l 7.575 0 c 15.9 0 31.4 4.9 44.425 14 z m 8 66 l 0 -66 c 13.025 -9.1 28.525 -14 44.425 -14 l 7.575 0 c 4.425 0 8 3.575 8 8 l 0 50.75 c 0 4.1 -3.125 7.55 -7.2 7.95 l -24 2.4 c -5.8 0.575 -11.475 2.225 -16.7 4.825 L 68 128 z"/></svg>